HIERARCHY
ROOT Hips
{
  OFFSET 373.837 88.1643 177.628
  CHANNELS 6 Xposition Yposition Zposition Zrotation Xrotation Yrotation
  JOINT RightUpLeg
  {
    OFFSET -9.27602 -1.55371 -0.0617006
    CHANNELS 3 Zrotation Xrotation Yrotation
    JOINT RightLeg
    {
      OFFSET 0.0569767 -41.8713 0.0644562
      CHANNELS 3 Zrotation Xrotation Yrotation
      JOINT RightFoot
      {
        OFFSET -0.463049 -43.0064 -0.0336586
        CHANNELS 3 Zrotation Xrotation Yrotation
        End Site
        {
          OFFSET 0 -7.69 17.5
        }
      }
    }
  }
  JOINT LeftUpLeg
  {
    OFFSET 9.29312 -1.63815 0.0236341
    CHANNELS 3 Zrotation Xrotation Yrotation
    JOINT LeftLeg
    {
      OFFSET 0.0670365 -41.8776 -0.0578197
      CHANNELS 3 Zrotation Xrotation Yrotation
      JOINT LeftFoot
      {
        OFFSET 0.591956 -40.8352 0.210268
        CHANNELS 3 Zrotation Xrotation Yrotation
        End Site
        {
          OFFSET 0 -7.69 17.5
        }
      }
    }
  }
  JOINT Spine
  {
    OFFSET 0.0229142 14.2949 0.0394214
    CHANNELS 3 Zrotation Xrotation Yrotation
    JOINT Spine1
    {
      OFFSET 0.0328969 9.71943 0.0194292
      CHANNELS 3 Zrotation Xrotation Yrotation
      JOINT Spine2
      {
        OFFSET 0.0292955 10.1244 -0.00440821
        CHANNELS 3 Zrotation Xrotation Yrotation
        JOINT Spine3
        {
          OFFSET 0.024556 9.71184 0.0101567
          CHANNELS 3 Zrotation Xrotation Yrotation
          JOINT Neck
          {
            OFFSET 0.152325 10.3757 0.0664015
            CHANNELS 3 Zrotation Xrotation Yrotation
            JOINT Head
            {
              OFFSET 0.134553 9.4858 0.0499874
              CHANNELS 3 Zrotation Xrotation Yrotation
              End Site
              {
                OFFSET 0 15.95 0
              }
            }
          }
          JOINT RightShoulder
          {
            OFFSET -3.19519 6.89024 -0.0330231
            CHANNELS 3 Zrotation Xrotation Yrotation
            JOINT RightArm
            {
              OFFSET -12.6524 0.0927817 0.0603028
              CHANNELS 3 Zrotation Xrotation Yrotation
              JOINT RightForeArm
              {
                OFFSET -26.4983 -0.141459 0.202928
                CHANNELS 3 Zrotation Xrotation Yrotation
                JOINT RightHand
                {
                  OFFSET -25.9883 -0.0240172 0.0141731
                  CHANNELS 3 Zrotation Xrotation Yrotation
                  JOINT RightHandThumb1
                  {
                    OFFSET -2.48905 0.190105 3.12053
                    CHANNELS 3 Zrotation Xrotation Yrotation
                    JOINT RightHandThumb2
                    {
                      OFFSET -3.68274 0 0
                      CHANNELS 3 Zrotation Xrotation Yrotation
                      JOINT RightHandThumb3
                      {
                        OFFSET -2.55832 0 0
                        CHANNELS 3 Zrotation Xrotation Yrotation
                        End Site
                        {
                          OFFSET -2.194 0 0
                        }
                      }
                    }
                  }
                  JOINT RightInHandIndex
                  {
                    OFFSET -3.22368 0.508421 1.97842
                    CHANNELS 3 Zrotation Xrotation Yrotation
                    JOINT RightHandIndex1
                    {
                      OFFSET -5.21684 -0.091368 0.999158
                      CHANNELS 3 Zrotation Xrotation Yrotation
                      JOINT RightHandIndex2
                      {
                        OFFSET -3.61937 0 0
                        CHANNELS 3 Zrotation Xrotation Yrotation
                        JOINT RightHandIndex3
                        {
                          OFFSET -2.0521 0 0
                          CHANNELS 3 Zrotation Xrotation Yrotation
                          End Site
                          {
                            OFFSET -1.805 0 0
                          }
                        }
                      }
                    }
                  }
                  JOINT RightInHandMiddle
                  {
                    OFFSET -3.38211 0.517263 0.756737
                    CHANNELS 3 Zrotation Xrotation Yrotation
                    JOINT RightHandMiddle1
                    {
                      OFFSET -5.17411 -0.084 0.313895
                      CHANNELS 3 Zrotation Xrotation Yrotation
                      JOINT RightHandMiddle2
                      {
                        OFFSET -3.94947 0 0
                        CHANNELS 3 Zrotation Xrotation Yrotation
                        JOINT RightHandMiddle3
                        {
                          OFFSET -2.47579 0 0
                          CHANNELS 3 Zrotation Xrotation Yrotation
                          End Site
                          {
                            OFFSET -1.975 0 0
                          }
                        }
                      }
                    }
                  }
                  JOINT RightInHandRing
                  {
                    OFFSET -3.36516 0.537895 -0.128947
                    CHANNELS 3 Zrotation Xrotation Yrotation
                    JOINT RightHandRing1
                    {
                      OFFSET -4.63474 -0.022105 -0.478947
                      CHANNELS 3 Zrotation Xrotation Yrotation
                      JOINT RightHandRing2
                      {
                        OFFSET -3.44238 0 0
                        CHANNELS 3 Zrotation Xrotation Yrotation
                        JOINT RightHandRing3
                        {
                          OFFSET -2.3881 0 0
                          CHANNELS 3 Zrotation Xrotation Yrotation
                          End Site
                          {
                            OFFSET -1.857 0 0
                          }
                        }
                      }
                    }
                  }
                  JOINT RightInHandPinky
                  {
                    OFFSET -3.16105 0.469368 -1.20179
                    CHANNELS 3 Zrotation Xrotation Yrotation
                    JOINT RightHandPinky1
                    {
                      OFFSET -4.14105 -0.022105 -1.09053
                      CHANNELS 3 Zrotation Xrotation Yrotation
                      JOINT RightHandPinky2
                      {
                        OFFSET -2.75653 0 0
                        CHANNELS 3 Zrotation Xrotation Yrotation
                        JOINT RightHandPinky3
                        {
                          OFFSET -1.74189 0 0
                          CHANNELS 3 Zrotation Xrotation Yrotation
                          End Site
                          {
                            OFFSET -1.645 0 0
                          }
                        }
                      }
                    }
                  }
                }
              }
            }
          }
          JOINT LeftShoulder
          {
            OFFSET 3.28609 6.87948 -0.0751467
            CHANNELS 3 Zrotation Xrotation Yrotation
            JOINT LeftArm
            {
              OFFSET 12.831 -0.0663252 -0.1321
              CHANNELS 3 Zrotation Xrotation Yrotation
              JOINT LeftForeArm
              {
                OFFSET 26.5106 -0.082189 -0.0903645
                CHANNELS 3 Zrotation Xrotation Yrotation
                JOINT LeftHand
                {
                  OFFSET 25.9965 -0.0307163 -0.0535747
                  CHANNELS 3 Zrotation Xrotation Yrotation
                  JOINT LeftHandThumb1
                  {
                    OFFSET 2.48905 0.190105 3.12053
                    CHANNELS 3 Zrotation Xrotation Yrotation
                    JOINT LeftHandThumb2
                    {
                      OFFSET 3.68274 0 0
                      CHANNELS 3 Zrotation Xrotation Yrotation
                      JOINT LeftHandThumb3
                      {
                        OFFSET 2.55832 0 0
                        CHANNELS 3 Zrotation Xrotation Yrotation
                        End Site
                        {
                          OFFSET 2.194 0 0
                        }
                      }
                    }
                  }
                  JOINT LeftInHandIndex
                  {
                    OFFSET 3.22368 0.508421 1.97842
                    CHANNELS 3 Zrotation Xrotation Yrotation
                    JOINT LeftHandIndex1
                    {
                      OFFSET 5.21684 -0.091368 0.999158
                      CHANNELS 3 Zrotation Xrotation Yrotation
                      JOINT LeftHandIndex2
                      {
                        OFFSET 3.61937 0 0
                        CHANNELS 3 Zrotation Xrotation Yrotation
                        JOINT LeftHandIndex3
                        {
                          OFFSET 2.0521 0 0
                          CHANNELS 3 Zrotation Xrotation Yrotation
                          End Site
                          {
                            OFFSET 1.805 0 0
                          }
                        }
                      }
                    }
                  }
                  JOINT LeftInHandMiddle
                  {
                    OFFSET 3.38211 0.517263 0.756737
                    CHANNELS 3 Zrotation Xrotation Yrotation
                    JOINT LeftHandMiddle1
                    {
                      OFFSET 5.17411 -0.084 0.313895
                      CHANNELS 3 Zrotation Xrotation Yrotation
                      JOINT LeftHandMiddle2
                      {
                        OFFSET 3.94947 0 0
                        CHANNELS 3 Zrotation Xrotation Yrotation
                        JOINT LeftHandMiddle3
                        {
                          OFFSET 2.47579 0 0
                          CHANNELS 3 Zrotation Xrotation Yrotation
                          End Site
                          {
                            OFFSET 1.975 0 0
                          }
                        }
                      }
                    }
                  }
                  JOINT LeftInHandRing
                  {
                    OFFSET 3.36516 0.537895 -0.128947
                    CHANNELS 3 Zrotation Xrotation Yrotation
                    JOINT LeftHandRing1
                    {
                      OFFSET 4.63474 -0.022105 -0.478947
                      CHANNELS 3 Zrotation Xrotation Yrotation
                      JOINT LeftHandRing2
                      {
                        OFFSET 3.44238 0 0
                        CHANNELS 3 Zrotation Xrotation Yrotation
                        JOINT LeftHandRing3
                        {
                          OFFSET 2.3881 0 0
                          CHANNELS 3 Zrotation Xrotation Yrotation
                          End Site
                          {
                            OFFSET 1.857 0 0
                          }
                        }
                      }
                    }
                  }
                  JOINT LeftInHandPinky
                  {
                    OFFSET 3.16105 0.469368 -1.20179
                    CHANNELS 3 Zrotation Xrotation Yrotation
                    JOINT LeftHandPinky1
                    {
                      OFFSET 4.14105 -0.022105 -1.09053
                      CHANNELS 3 Zrotation Xrotation Yrotation
                      JOINT LeftHandPinky2
                      {
                        OFFSET 2.75653 0 0
                        CHANNELS 3 Zrotation Xrotation Yrotation
                        JOINT LeftHandPinky3
                        {
                          OFFSET 1.74189 0 0
                          CHANNELS 3 Zrotation Xrotation Yrotation
                          End Site
                          {
                            OFFSET 1.645 0 0
                          }
                        }
                      }
                    }
                  }
                }
              }
            }
          }
        }
      }
    }
  }
}
MOTION
Frames: 3
Frame Time: 0.00833333
7.476651678076477765e+02 8.299866268568563132e-01 -8.669073653788015310e-01 -5.312945483874492503e+00 -5.688927305235324638e+00 3.796445484883655741e+00 3.001679005508204323e+00 1.693185871283320409e+01 6.614981277074979182e+00 -3.066928033057217395e-02 -4.820932173671751642e+00 -7.651110359292259133e-01 -1.726107786725120219e+00 3.747196612141245886e+00 3.329061574516436472e+00 -5.995334056662174227e+00 1.407071081016575498e+01 -1.187799412549270350e+00 -3.951358480065998435e+00 -5.100285013853563143e+00 1.743268851083329851e+00 1.254851376865642409e+00 2.102379559310220969e-01 -3.167664040164359207e+00 -2.572090085678425453e+00 -2.751666997485560984e+00 4.815504985535733695e+00 -5.668056724823266057e-01 -9.557923202671523288e-01 1.257299384036538070e+00 -9.638250943300594731e-01 -1.669773643662744167e+00 1.987586934801132577e+00 2.932674198935379950e-01 -1.905175694995251551e-02 -4.556460148518970965e-01 1.323224162438753737e+00 -2.023698395417334872e+00 6.948585456832650387e+00 5.994230806496355868e+00 5.186552990830419319e+00 -1.320375780071057648e+01 -2.050585075837954463e+00 1.801135701586169313e+00 5.039610501910699369e+00 -2.295748451399506251e+01 -7.849956446902650598e+00 3.101763226437394549e-01 -7.545256141754858703e+00 9.388550406756857925e+00 6.097918302936085055e-01 1.735082022074883046e+00 9.503256843476561855e+00 -7.570601046626643793e+00 0.000000000000000000e+00 0.000000000000000000e+00 0.000000000000000000e+00 -4.160761604047923867e-16 2.338256614279029622e-16 0.000000000000000000e+00 -1.510005983598695877e-15 8.220201788280485286e-18 0.000000000000000000e+00 -1.296968171276892647e-15 -2.164982942977082753e-16 6.565498738048181536e-16 0.000000000000000000e+00 0.000000000000000000e+00 0.000000000000000000e+00 0.000000000000000000e+00 -6.573315570809386373e-16 -1.964579241458583111e-15 0.000000000000000000e+00 -1.133792919583641873e-15 -6.461612745297583570e-15 -1.296968171276892647e-15 -2.164982942977082753e-16 6.565498738048181536e-16 0.000000000000000000e+00 -5.362794463822418914e-16 -1.081469121736294843e-15 0.000000000000000000e+00 -4.808369166361192140e-16 -1.436036389724920869e-15 0.000000000000000000e+00 -2.812628952148706041e-16 -7.083109047041274829e-15 -1.296968171276892647e-15 -2.164982942977082753e-16 6.565498738048181536e-16 0.000000000000000000e+00 0.000000000000000000e+00 0.000000000000000000e+00 0.000000000000000000e+00 -5.221544166231944236e-16 -1.664729941407783171e-15 0.000000000000000000e+00 -1.766724597391923100e-15 -4.693662903877407643e-15 -1.296968171276892647e-15 -2.164982942977082753e-16 6.565498738048181536e-16 0.000000000000000000e+00 0.000000000000000000e+00 0.000000000000000000e+00 0.000000000000000000e+00 1.606419169842543098e-15 2.044047573667152049e-16 0.000000000000000000e+00 -9.010098515471513293e-16 -2.241417054549904348e-16 -2.040947455340515582e+00 -2.838372101292072180e+00 4.145104907225664603e-01 -3.629623919673313992e+00 -6.184010685042562017e+00 8.389045635779435184e-01 -5.758992061219252889e+00 -1.880126405412670820e+01 -3.487696350611265217e+01 4.022011309274918567e+00 4.034560729740532814e-02 -5.110208643523386662e+00 0.000000000000000000e+00 0.000000000000000000e+00 0.000000000000000000e+00 -4.173685396735362571e-16 -6.683896990614452981e-16 0.000000000000000000e+00 3.421359627166416767e-16 1.524633206429876557e-15 0.000000000000000000e+00 -1.122674114427720863e-15 -1.778232568131149502e-16 -1.446549754218288987e-15 0.000000000000000000e+00 0.000000000000000000e+00 0.000000000000000000e+00 0.000000000000000000e+00 -7.937721683793366272e-16 3.390091215736787811e-15 0.000000000000000000e+00 6.970240366049504266e-16 -7.532753927464164084e-16 -1.122674114427720863e-15 -1.778232568131149502e-16 -1.446549754218288987e-15 0.000000000000000000e+00 -7.724186063821216696e-16 -9.224102794249824076e-16 0.000000000000000000e+00 4.722204402533989149e-16 6.859699881889801536e-16 0.000000000000000000e+00 6.497567508800401354e-16 -1.805764568671231989e-15 -1.122674114427720863e-15 -1.778232568131149502e-16 -1.446549754218288987e-15 0.000000000000000000e+00 0.000000000000000000e+00 0.000000000000000000e+00 0.000000000000000000e+00 -4.622669211507226220e-16 -1.907272254535505748e-16 0.000000000000000000e+00 6.045358923032271354e-16 -1.693289502934760020e-15 -1.122674114427720863e-15 -1.778232568131149502e-16 -1.446549754218288987e-15 0.000000000000000000e+00 0.000000000000000000e+00 0.000000000000000000e+00 0.000000000000000000e+00 8.939482574651727568e-16 6.024102895308526933e-16 0.000000000000000000e+00 -2.964255131850252014e-16 -4.439092197521208639e-16
7.477015810284668760e+02 8.341493005251986448e-01 -8.876004623203064270e-01 -5.337047776049284487e+00 -5.793405649553922565e+00 3.643554855322360453e+00 3.307629265353321912e+00 1.700649646059188669e+01 6.799294272183449728e+00 -4.811300190967067458e-02 -4.878546788040465820e+00 -7.392057578846369381e-01 -2.084149586687319200e+00 3.947306812149363520e+00 3.618581966603943378e+00 -5.907377948917683419e+00 1.427202715676594380e+01 -9.764226058600937730e-01 -4.043699930823021482e+00 -5.166564376132608771e+00 1.806513130134290268e+00 1.261700887428222950e+00 2.104888326801662435e-01 -3.153371483387996665e+00 -2.722177535330812415e+00 -2.889017945583194358e+00 4.858135488761099907e+00 -6.048900655841566998e-01 -9.957028483744098102e-01 1.265754023274573425e+00 -1.026428042162931709e+00 -1.736710775511601135e+00 1.998086595631966667e+00 2.940154427766810685e-01 -2.113834859695522608e-02 -4.434394387973914498e-01 1.325560355064827833e+00 -1.986064922542365885e+00 7.111800765600960084e+00 5.988450719638252373e+00 5.193550105361940616e+00 -1.306036164948369382e+01 -2.077219431908756242e+00 1.958910488053100973e+00 4.972753908593134042e+00 -2.347164704761655685e+01 -8.153755648572730053e+00 1.387843037993630735e-01 -7.643329678087032342e+00 9.008533718729442086e+00 1.458153433640986929e+00 1.694869883931704235e+00 9.795335993846538969e+00 -7.639739650706810714e+00 0.000000000000000000e+00 0.000000000000000000e+00 0.000000000000000000e+00 -1.088014758795571000e-16 1.716216671776113196e-16 0.000000000000000000e+00 -1.343835359851654320e-15 -1.848565897430668030e-16 0.000000000000000000e+00 -1.229732392906104144e-15 -4.073392258302866242e-16 6.484396216062673447e-16 0.000000000000000000e+00 0.000000000000000000e+00 0.000000000000000000e+00 0.000000000000000000e+00 -5.912356952622957628e-16 -2.077974402076700903e-15 0.000000000000000000e+00 -1.294925013138435811e-15 -6.275087530086682031e-15 -1.229732392906104144e-15 -4.073392258302866242e-16 6.484396216062673447e-16 0.000000000000000000e+00 -6.977608626673201243e-16 -1.036872742791987125e-15 0.000000000000000000e+00 -3.103551366549702914e-16 -1.410425955001409954e-15 0.000000000000000000e+00 -1.587062228298666584e-16 -7.154452899160459118e-15 -1.229732392906104144e-15 -4.073392258302866242e-16 6.484396216062673447e-16 0.000000000000000000e+00 0.000000000000000000e+00 0.000000000000000000e+00 0.000000000000000000e+00 -5.824687565555879548e-16 -1.649847505195848557e-15 0.000000000000000000e+00 -1.583193424994502596e-15 -4.518584245840178849e-15 -1.229732392906104144e-15 -4.073392258302866242e-16 6.484396216062673447e-16 0.000000000000000000e+00 0.000000000000000000e+00 0.000000000000000000e+00 0.000000000000000000e+00 1.743012239865652933e-15 2.010955246051577087e-16 0.000000000000000000e+00 -1.018935912634790980e-15 -1.023714793270269572e-16 -2.099277177179219134e+00 -2.821348249678709230e+00 3.116238986648321996e-01 -3.371094120054450194e+00 -6.392891964056584442e+00 6.640278135577926122e-01 -5.061465147094923012e+00 -1.876904239876633795e+01 -3.484319462317886007e+01 4.046711944621391943e+00 5.529749411667794767e-02 -5.300780565758116403e+00 0.000000000000000000e+00 0.000000000000000000e+00 0.000000000000000000e+00 -3.800113602156525700e-16 -6.010966364517331901e-16 0.000000000000000000e+00 3.731910320407307200e-16 1.673617453094922245e-15 0.000000000000000000e+00 -1.199029594928058996e-15 -2.097217354635961420e-16 -1.451875322670751991e-15 0.000000000000000000e+00 0.000000000000000000e+00 0.000000000000000000e+00 0.000000000000000000e+00 -9.077219876924841546e-16 3.500562052717452915e-15 0.000000000000000000e+00 8.735114650413023913e-16 -7.998546004930992327e-16 -1.199029594928058996e-15 -2.097217354635961420e-16 -1.451875322670751991e-15 0.000000000000000000e+00 -6.460200010764914179e-16 -7.217229122713102977e-16 0.000000000000000000e+00 3.934651139722094992e-16 8.883537376368198841e-16 0.000000000000000000e+00 5.927749230091397693e-16 -1.806719156598460623e-15 -1.199029594928058996e-15 -2.097217354635961420e-16 -1.451875322670751991e-15 0.000000000000000000e+00 0.000000000000000000e+00 0.000000000000000000e+00 0.000000000000000000e+00 -5.023808740457395467e-16 -1.538073820676812055e-16 0.000000000000000000e+00 5.148356580600079122e-16 -1.842626072563441420e-15 -1.199029594928058996e-15 -2.097217354635961420e-16 -1.451875322670751991e-15 0.000000000000000000e+00 0.000000000000000000e+00 0.000000000000000000e+00 0.000000000000000000e+00 9.028082522280588302e-16 6.335101126495258166e-16 0.000000000000000000e+00 -3.488646561012276004e-16 -6.261110312702261404e-16
7.477380680791831082e+02 8.372193164637453666e-01 -9.058061685427141185e-01 -5.353501246682050407e+00 -5.896417599440695767e+00 3.470519082930141774e+00 3.625594840439367861e+00 1.706506813249797005e+01 6.995438180795293448e+00 -6.485144850079396783e-02 -4.934793256414912399e+00 -7.170699686379592430e-01 -2.427375986231146143e+00 4.148473519501562734e+00 3.910316015088782571e+00 -5.803584404272934094e+00 1.446990892728140388e+01 -7.545520537414942552e-01 -4.145581587778310428e+00 -5.224567865147644596e+00 1.880832501458087780e+00 1.273628931683734145e+00 2.030861671393756340e-01 -3.127411124791913188e+00 -2.869917195448566272e+00 -3.024495597382980794e+00 4.897015798421826993e+00 -6.425164398102389818e-01 -1.034770013426123292e+00 1.273032767951890021e+00 -1.088219216031021563e+00 -1.802168670288089913e+00 2.006649621103599124e+00 2.941880084904344717e-01 -2.380236251228853503e-02 -4.302205259100708168e-01 1.326287445290083689e+00 -1.954877785523255751e+00 7.283915672357484716e+00 5.974804356104865377e+00 5.199384313400340574e+00 -1.290369332667112445e+01 -2.100078822273459878e+00 2.117198170696484638e+00 4.903206718694747224e+00 -2.394385579418970522e+01 -8.465719320407909976e+00 8.697381453158958831e-03 -7.736442017152384665e+00 8.623343457182555127e+00 2.302828145246777147e+00 1.659434179271779275e+00 1.007405085115372678e+01 -7.711213329768949798e+00 0.000000000000000000e+00 0.000000000000000000e+00 0.000000000000000000e+00 2.254729456785763814e-16 8.503658721808228395e-17 0.000000000000000000e+00 -1.147300983288724971e-15 -3.680818870592051479e-16 0.000000000000000000e+00 -1.132247684915676913e-15 -5.854516627500616829e-16 6.473805682634035517e-16 0.000000000000000000e+00 0.000000000000000000e+00 0.000000000000000000e+00 0.000000000000000000e+00 -5.269523706646220976e-16 -2.176932948516306383e-15 0.000000000000000000e+00 -1.457760076068681142e-15 -6.086212298441050247e-15 -1.132247684915676913e-15 -5.854516627500616829e-16 6.473805682634035517e-16 0.000000000000000000e+00 -8.790966728494879957e-16 -1.018612590483881488e-15 0.000000000000000000e+00 -1.202432748029615865e-16 -1.386324856637323729e-15 0.000000000000000000e+00 -5.083468902253613247e-17 -7.206106260170320340e-15 -1.132247684915676913e-15 -5.854516627500616829e-16 6.473805682634035517e-16 0.000000000000000000e+00 0.000000000000000000e+00 0.000000000000000000e+00 0.000000000000000000e+00 -6.285744594079603460e-16 -1.588536587564397670e-15 0.000000000000000000e+00 -1.376964698987165644e-15 -4.326576000034681598e-15 -1.132247684915676913e-15 -5.854516627500616829e-16 6.473805682634035517e-16 0.000000000000000000e+00 0.000000000000000000e+00 0.000000000000000000e+00 0.000000000000000000e+00 1.873796630273470084e-15 2.120183101091991559e-16 0.000000000000000000e+00 -1.147400768575457748e-15 5.419767233686055541e-17 -2.162426463841642388e+00 -2.807117549797895961e+00 1.994097144227966190e-01 -3.111988480852285743e+00 -6.594601730587037913e+00 4.886082612038061823e-01 -4.365856527424117672e+00 -1.871434248519619459e+01 -3.479757729671949562e+01 4.071958677903762869e+00 7.271995490199686940e-02 -5.491508509620715905e+00 0.000000000000000000e+00 0.000000000000000000e+00 0.000000000000000000e+00 -3.482603243434823481e-16 -5.026240256136965458e-16 0.000000000000000000e+00 3.836772399938105564e-16 1.829932216436285492e-15 0.000000000000000000e+00 -1.287584774132487333e-15 -2.495994667833134091e-16 -1.451381239948053216e-15 0.000000000000000000e+00 0.000000000000000000e+00 0.000000000000000000e+00 0.000000000000000000e+00 -1.005990766522291970e-15 3.584086304455393409e-15 0.000000000000000000e+00 1.043108498350373101e-15 -8.651837932014401253e-16 -1.287584774132487333e-15 -2.495994667833134091e-16 -1.451381239948053216e-15 0.000000000000000000e+00 -5.073920075704539372e-16 -5.428502257664488684e-16 0.000000000000000000e+00 3.188791658241139840e-16 1.089502494543492898e-15 0.000000000000000000e+00 5.349244898614160746e-16 -1.819090868885902771e-15 -1.287584774132487333e-15 -2.495994667833134091e-16 -1.451381239948053216e-15 0.000000000000000000e+00 0.000000000000000000e+00 0.000000000000000000e+00 0.000000000000000000e+00 -5.499357324177734755e-16 -1.233868865736767418e-16 0.000000000000000000e+00 4.125820529867119595e-16 -1.994870657339596860e-15 -1.287584774132487333e-15 -2.495994667833134091e-16 -1.451381239948053216e-15 0.000000000000000000e+00 0.000000000000000000e+00 0.000000000000000000e+00 0.000000000000000000e+00 9.189814899695859841e-16 6.661485699133826273e-16 0.000000000000000000e+00 -3.859705191096975416e-16 -8.158429155937208050e-16
